<mxfile host="app.diagrams.net" modified="2024-03-21T11:52:33.495Z" agent="Mozilla/5.0 (Windows NT 10.0; Win64; x64) AppleWebKit/537.36 (KHTML, like Gecko) Chrome/122.0.0.0 Safari/537.36" version="24.0.7" etag="YoDnqeuTd8wPwpyzbbCJ" type="github">
  <diagram name="Trang-1" id="kjFQluNSY3Sc0F7JD1lw">
    <mxGraphModel>
      <root>
        <mxCell id="0" />
        <mxCell id="1" parent="0" />
      </root>
    </mxGraphModel>
  </diagram>
</mxfile>
